{
    "asset" : {
        "generator" : "Khronos glTF Blender I/O v1.7.33",
        "version" : "2.0"
    },
    "scene" : 0,
    "scenes" : [
        {
            "name" : "Scene",
            "nodes" : [
                0
            ]
        }
    ],
    "nodes" : [
        {
            "mesh" : 0,
            "name" : "Unie",
            "rotation" : [
                0.39722827076911926,
                0.44648537039756775,
                -0.22933709621429443,
                0.7682870626449585
            ],
            "scale" : [
                0.5368678569793701,
                0.433236300945282,
                0.5368679165840149
            ],
            "translation" : [
                0,
                2.9870059490203857,
                0
            ]
        }
    ],
    "materials" : [
        {
            "doubleSided" : true,
            "name" : "Material.004",
            "pbrMetallicRoughness" : {
                "baseColorFactor" : [
                    0.800000011920929,
                    0.800000011920929,
                    0.800000011920929,
                    1
                ],
                "roughnessFactor" : 0
            }
        },
        {
            "doubleSided" : true,
            "name" : "Material.003",
            "pbrMetallicRoughness" : {
                "baseColorFactor" : [
                    0.19673554599285126,
                    0.18951919674873352,
                    0.3423817753791809,
                    1
                ],
                "roughnessFactor" : 0.8623188138008118
            }
        }
    ],
    "meshes" : [
        {
            "name" : "Circle.004",
            "primitives" : [
                {
                    "attributes" : {
                        "POSITION" : 0,
                        "NORMAL" : 1,
                        "TEXCOORD_0" : 2
                    },
                    "indices" : 3,
                    "material" : 0
                },
                {
                    "attributes" : {
                        "POSITION" : 4,
                        "NORMAL" : 5,
                        "TEXCOORD_0" : 6
                    },
                    "indices" : 7,
                    "material" : 1
                }
            ]
        }
    ],
    "accessors" : [
        {
            "bufferView" : 0,
            "componentType" : 5126,
            "count" : 14852,
            "max" : [
                2.685619354248047,
                2.591372013092041,
                2.9376368522644043
            ],
            "min" : [
                -3.3148441314697266,
                -3.0379316806793213,
                -1.918192982673645
            ],
            "type" : "VEC3"
        },
        {
            "bufferView" : 1,
            "componentType" : 5126,
            "count" : 14852,
            "type" : "VEC3"
        },
        {
            "bufferView" : 2,
            "componentType" : 5126,
            "count" : 14852,
            "type" : "VEC2"
        },
        {
            "bufferView" : 3,
            "componentType" : 5123,
            "count" : 25056,
            "type" : "SCALAR"
        },
        {
            "bufferView" : 4,
            "componentType" : 5126,
            "count" : 1040,
            "max" : [
                2.6209521293640137,
                2.2430074214935303,
                6.531761169433594
            ],
            "min" : [
                -3.7009215354919434,
                -6.589902877807617,
                -1.8075755834579468
            ],
            "type" : "VEC3"
        },
        {
            "bufferView" : 5,
            "componentType" : 5126,
            "count" : 1040,
            "type" : "VEC3"
        },
        {
            "bufferView" : 6,
            "componentType" : 5126,
            "count" : 1040,
            "type" : "VEC2"
        },
        {
            "bufferView" : 7,
            "componentType" : 5123,
            "count" : 1860,
            "type" : "SCALAR"
        }
    ],
    "bufferViews" : [
        {
            "buffer" : 0,
            "byteLength" : 178224,
            "byteOffset" : 0
        },
        {
            "buffer" : 0,
            "byteLength" : 178224,
            "byteOffset" : 178224
        },
        {
            "buffer" : 0,
            "byteLength" : 118816,
            "byteOffset" : 356448
        },
        {
            "buffer" : 0,
            "byteLength" : 50112,
            "byteOffset" : 475264
        },
        {
            "buffer" : 0,
            "byteLength" : 12480,
            "byteOffset" : 525376
        },
        {
            "buffer" : 0,
            "byteLength" : 12480,
            "byteOffset" : 537856
        },
        {
            "buffer" : 0,
            "byteLength" : 8320,
            "byteOffset" : 550336
        },
        {
            "buffer" : 0,
            "byteLength" : 3720,
            "byteOffset" : 558656
        }
    ],
    "buffers" : [
        {
            "byteLength" : 562376,
            "uri" : "data:application/octet-stream;base64,"
        }
    ]
}
